{"title":"Game of Death 2010 DVDrip English Klam","uid":6442207,"size":1452130073,"categoryP":"video","categoryS":"movies","magnet":"?xt=urn:btih:a5234569b3f128e9d6c9c30c845504f1374dcd85&amp;dn=Game+of+Death+2010+DVDrip+English+Klam&amp;tr=udp%3A%2F%2Ftracker.openbittorrent.com%3A80&amp;tr=udp%3A%2F%2Fopen.demonii.com%3A1337&amp;tr=udp%3A%2F%2Ftracker.coppersurfer.tk%3A6969&amp;tr=udp%3A%2F%2Fexodus.desync.com%3A6969","seeders":0,"leechers":1,"uploader":"Klambake","files":-1,"time":1307009737,"description":"With: Wesley Snipes, Zoe Bell and Robert Davi\n\nDe CIA-agent Marcus (Snipes) werkt undercover als bodyguard voor een wapenhandelaar, die in dienst is bij de baas van een hedgefonds, met als doel hem en zijn baas uit te schakelen. Wanneer een paar corrupte CIA-agenten het voorzien hebben op het geld deze financier, moet Marcus het opnemen tegen zijn collega's.\n\nSecret Ops agent Marcus is sent to Detroit to take out an arms dealer and the head of the hedge fund that is financing him. His CIA backup has other plans and turns on him and it's a fight to survive in a hospital. \n\nGeneral:\n\nComplete name                    : Game Of Death\\Game Of Death.avi\nFormat                           : AVI\nFormat/Info                      : Audio Video Interleave\nFile size                        : 1.35 GiB\nDuration                         : 1h 22mn\nOverall bit rate                 : 2 349 Kbps\n\nVideo:\n\nFormat                           : MPEG-4 Visual\nFormat profile                   : Simple@L3\nFormat settings, BVOP            : No\nFormat settings, QPel            : No\nFormat settings, GMC             : No warppoints\nFormat settings, Matrix          : Default (H.263)\nCodec ID                         : XVID\nCodec ID/Hint                    : XviD\nDuration                         : 1h 22mn\nBit rate                         : 1 890 Kbps\nWidth                            : 720 pixels\nHeight                           : 304 pixels\nDisplay aspect ratio             : 2.35:1\nFrame rate                       : 25.000 fps\nColor space                      : YUV\nChroma subsampling               : 4:2:0\nBit depth                        : 8 bits\nScan type                        : Progressive\nBits/(Pixel*Frame)               : 0.345\nStream size                      : 1.09 GiB (80%)\nWriting library                  : XviD 1.1.2 (UTC 2006-11-01)\n\nAudio:\n\nFormat                           : AC-3\nFormat/Info                      : Audio Coding 3\nMode extension                   : CM (complete main)\nCodec ID                         : 2000\nDuration                         : 1h 22mn\nBit rate mode                    : Constant\nBit rate                         : 448 Kbps\nChannel(s)                       : 6 channels\nChannel positions                : Front: L C R, Side: L R, LFE\nSampling rate                    : 48.0 KHz\nBit depth                        : 16 bits\nStream size                      : 264 MiB (19%)\nAlignment                        : Aligned on interleaves\nInterleave, duration             : 32 ms (0.80 video frame)\nInterleave, preload duration     : 928 ms\n","torrent":{"xt":"urn:btih:a5234569b3f128e9d6c9c30c845504f1374dcd85","amp;dn":"Game+of+Death+2010+DVDrip+English+Klam","amp;tr":["udp%3A%2F%2Ftracker.openbittorrent.com%3A80","udp%3A%2F%2Fopen.demonii.com%3A1337","udp%3A%2F%2Ftracker.coppersurfer.tk%3A6969","udp%3A%2F%2Fexodus.desync.com%3A6969"],"infoHash":"a5234569b3f128e9d6c9c30c845504f1374dcd85","infoHashBuffer":{"type":"Buffer","data":[165,35,69,105,179,241,40,233,214,201,195,12,132,85,4,241,55,77,205,133]},"announce":[],"urlList":[]}}